HIERARCHY
ROOT Hips
{
	OFFSET 0.000000 0.000000 0.000000
	CHANNELS 6 Xposition Yposition Zposition Zrotation Yrotation Xrotation 
	JOINT LHipJoint
	{
		OFFSET 0.000000 0.000000 0.000000
		CHANNELS 3 Zrotation Yrotation Xrotation
		JOINT LeftUpLeg
		{
			OFFSET 1.363060 -1.794630 0.839290
			CHANNELS 3 Zrotation Yrotation Xrotation
			JOINT LeftLeg
			{
				OFFSET 2.448110 -6.726130 0.000000
				CHANNELS 3 Zrotation Yrotation Xrotation
				JOINT LeftFoot
				{
					OFFSET 2.562200 -7.039590 0.000000
					CHANNELS 3 Zrotation Yrotation Xrotation
					JOINT LeftToeBase
					{
						OFFSET 0.157640 -0.433110 2.322550
						CHANNELS 3 Zrotation Yrotation Xrotation
						End Site
						{
							OFFSET 0.000000 0.000000 0.000000
						}
					}
				}
			}
		}
	}
	JOINT RHipJoint
	{
		OFFSET 0.000000 0.000000 0.000000
		CHANNELS 3 Zrotation Yrotation Xrotation
		JOINT RightUpLeg
		{
			OFFSET -1.305520 -1.794630 0.839290
			CHANNELS 3 Zrotation Yrotation Xrotation
			JOINT RightLeg
			{
				OFFSET -2.542530 -6.985550 0.000000
				CHANNELS 3 Zrotation Yrotation Xrotation
				JOINT RightFoot
				{
					OFFSET -2.568260 -7.056230 0.000000
					CHANNELS 3 Zrotation Yrotation Xrotation
					JOINT RightToeBase
					{
						OFFSET -0.164730 -0.452590 2.363150
						CHANNELS 3 Zrotation Yrotation Xrotation
						End Site
						{
							OFFSET 0.000000 0.000000 0.000000
						}
					}
				}
			}
		}
	}
	JOINT LowerBack
	{
		OFFSET 0.000000 0.000000 0.000000
		CHANNELS 3 Zrotation Yrotation Xrotation
		JOINT Spine
		{
			OFFSET 0.028270 2.035590 -0.193380
			CHANNELS 3 Zrotation Yrotation Xrotation
			JOINT Spine1
			{
				OFFSET 0.056720 2.048850 -0.042750
				CHANNELS 3 Zrotation Yrotation Xrotation
				JOINT Neck
				{
					OFFSET 0.000000 0.000000 0.000000
					CHANNELS 3 Zrotation Yrotation Xrotation
					JOINT Neck1
					{
						OFFSET -0.054170 1.746240 0.172020
						CHANNELS 3 Zrotation Yrotation Xrotation
						JOINT Head
						{
							OFFSET 0.104070 1.761360 -0.123970
							CHANNELS 3 Zrotation Yrotation Xrotation
							End Site
							{
								OFFSET 0.000000 0.000000 0.000000
							}
						}
					}
				}
				JOINT LeftShoulder
				{
					OFFSET 0.000000 0.000000 0.000000
					CHANNELS 3 Zrotation Yrotation Xrotation
					JOINT LeftArm
					{
						OFFSET 3.362410 1.200890 -0.311210
						CHANNELS 3 Zrotation Yrotation Xrotation
						JOINT LeftForeArm
						{
							OFFSET 4.983000 -0.000000 -0.000000
							CHANNELS 3 Zrotation Yrotation Xrotation
							JOINT LeftHand
							{
								OFFSET 3.483560 -0.000000 -0.000000
								CHANNELS 3 Zrotation Yrotation Xrotation
								JOINT LeftFingerBase
								{
									OFFSET 0.000000 0.000000 0.000000
									CHANNELS 3 Zrotation Yrotation Xrotation
									JOINT LeftHandIndex1
									{
										OFFSET 0.715260 -0.000000 -0.000000
										CHANNELS 3 Zrotation Yrotation Xrotation
										End Site
										{
											OFFSET 0.000000 0.000000 0.000000
										}
									}
								}
								JOINT LThumb
								{
									OFFSET 0.000000 0.000000 0.000000
									CHANNELS 3 Zrotation Yrotation Xrotation
									End Site
									{
										OFFSET 0.000000 0.000000 0.000000
									}
								}
							}
						}
					}
				}
				JOINT RightShoulder
				{
					OFFSET 0.000000 0.000000 0.000000
					CHANNELS 3 Zrotation Yrotation Xrotation
					JOINT RightArm
					{
						OFFSET -3.136600 1.374050 -0.404650
						CHANNELS 3 Zrotation Yrotation Xrotation
						JOINT RightForeArm
						{
							OFFSET -5.241900 -0.000000 -0.000000
							CHANNELS 3 Zrotation Yrotation Xrotation
							JOINT RightHand
							{
								OFFSET -3.444170 -0.000000 -0.000000
								CHANNELS 3 Zrotation Yrotation Xrotation
								JOINT RightFingerBase
								{
									OFFSET 0.000000 0.000000 0.000000
									CHANNELS 3 Zrotation Yrotation Xrotation
									JOINT RightHandIndex1
									{
										OFFSET -0.622530 -0.000000 -0.000000
										CHANNELS 3 Zrotation Yrotation Xrotation
										End Site
										{
											OFFSET 0.000000 0.000000 0.000000
										}
									}
								}
								JOINT RThumb
								{
									OFFSET 0.000000 0.000000 0.000000
									CHANNELS 3 Zrotation Yrotation Xrotation
									End Site
									{
										OFFSET 0.000000 0.000000 0.000000
									}
								}
							}
						}
					}
				}
			}
		}
	}
}
MOTION
Frames: 4
Frame Time: 0.033333
0.007733 17.833296 6.270420 84.228646 -23.152702 -36.290298 -90.787948 -47.657935 47.831553 -2.607193 7.920539 -46.502103 -43.784161 66.313412 -47.709973 19.127825 5.498513 6.065847 0.101540 -0.008001 -33.361823 34.080444 -6.484226 -99.482378 68.896819 -58.402251 -115.182954 112.818177 -35.493704 -88.388309 -11.183568 -24.700081 2.460803 -1.594122 0.163394 -43.180463 -93.552166 65.902013 -4.191039 -173.548380 69.479684 -171.294164 -156.397688 71.551406 -164.549976 -5.718230 4.643952 5.069151 21.297062 -2.901153 -2.758012 0.032542 -0.120295 0.106310 90.886731 66.474861 -9.422261 -45.435578 57.347321 -73.919506 -41.474310 31.102200 -116.935031 8.538671 -10.007901 -9.904382 -13.962073 -0.159074 -16.135668 -0.034043 -0.067602 0.079576 0.102077 0.063412 -0.075121 87.189986 74.878185 110.364415 55.088126 35.203112 163.728931 -12.421152 -28.195522 85.160801 31.707729 4.660840 -22.983429 -7.527455 -4.346746 -46.038774 -0.053408 0.099360 -0.080930 -0.070862 -0.056420 -0.109050 
-0.023221 17.803522 6.733750 84.543260 -23.463234 -36.418377 -92.279048 -47.774817 48.999821 -4.237054 6.355182 -46.389866 -39.755746 65.202036 -47.227187 18.911100 6.736231 5.501975 0.107402 0.016324 -36.526795 34.544892 -6.563049 -100.849662 66.297294 -61.712339 -112.232468 112.175591 -40.161373 -98.144961 -9.302086 -25.155557 -1.809819 -1.456726 0.137975 -42.965081 -91.333006 65.777866 -3.225711 -174.214867 69.820058 -171.694767 -158.168781 71.084558 -166.628728 -5.551276 5.144073 6.745665 23.057951 -1.813587 -5.406279 0.093162 -0.074109 0.044499 87.703018 65.109163 -12.525669 -43.466150 56.053906 -75.514015 -47.714871 35.755391 -119.096227 11.702061 -17.178911 -11.346342 -15.569859 5.942975 -23.694563 -0.083503 -0.081003 0.079425 0.026104 0.060896 -0.073172 79.427725 73.990663 102.802208 55.663443 32.596879 166.601867 -12.074917 -32.188217 82.910193 26.938996 5.220052 -20.975682 -0.065868 -1.498297 -53.430902 -0.087434 0.049451 -0.061904 -0.071899 -0.088367 -0.031738 
-0.069384 17.763807 7.208081 84.942653 -24.165535 -36.237640 -93.128895 -48.047064 49.415558 -5.595876 5.503614 -45.812579 -36.970240 63.327166 -46.618342 18.236407 8.179093 5.084990 0.247265 0.034592 -39.918114 34.470547 -6.564430 -102.381407 64.424283 -65.472741 -109.730454 111.959926 -44.601101 -108.283050 -8.302503 -25.080395 -4.697436 -1.317797 0.130380 -42.382644 -88.251590 65.408166 -1.771336 -177.867629 69.299529 -174.542502 -158.801017 71.408094 -166.977892 -4.149210 5.142252 7.478805 23.072617 1.466955 -6.443221 0.057191 -0.106184 0.097806 87.428833 63.352668 -12.444564 -42.922499 55.005896 -78.295552 -53.319089 39.971847 -120.948015 13.225343 -23.749902 -14.981402 -16.684655 11.836822 -31.587751 -0.053165 -0.073278 0.071847 0.082944 0.056092 -0.077075 71.992584 72.358323 95.557250 55.881549 30.909089 168.885939 -11.691586 -34.255731 80.862428 20.271025 5.867611 -13.495067 4.406417 6.794475 -60.936496 -0.052832 0.090753 -0.080902 -0.073543 -0.044042 -0.118533 
-0.130970 17.715323 7.695083 85.433966 -24.934213 -35.886797 -94.836162 -47.568147 50.718890 -5.759092 5.237204 -45.222142 -37.017892 61.122556 -48.139065 13.540951 9.578139 3.849605 0.425224 0.057761 -43.175957 34.641962 -7.028841 -103.822688 60.742147 -68.490099 -104.841857 112.253957 -48.688058 -120.104118 -7.706873 -24.131733 -7.632455 -1.215703 0.114624 -42.800963 -85.685669 65.599364 -0.201091 -177.161783 69.816642 -173.553461 -160.630272 70.831381 -169.088469 -2.673938 6.388623 7.739950 23.994277 5.330438 -7.255546 0.073836 -0.063107 0.046814 85.354187 61.926045 -14.886283 -40.335327 55.432303 -80.340754 -57.378320 44.691507 -122.891657 14.749621 -28.419582 -15.791793 -20.595710 19.891313 -39.318631 -0.067391 -0.080779 0.062914 0.045786 0.080824 -0.062405 65.118152 70.025791 89.014704 55.406667 29.241109 171.626276 -11.117317 -37.238267 77.888882 14.288983 7.116651 -12.057149 4.793713 12.594438 -76.860212 -0.059117 0.060049 -0.062615 -0.071643 -0.102334 -0.044217 
